<mxfile host="Electron" agent="Mozilla/5.0 (Macintosh; Intel Mac OS X 10_15_7) AppleWebKit/537.36 (KHTML, like Gecko) draw.io/24.7.17 Chrome/128.0.6613.36 Electron/32.0.1 Safari/537.36" version="24.7.17">
  <diagram name="PÃ¡gina-1" id="2EMVaQyAWNJwiGSMWMdg">
    <mxGraphModel dx="690" dy="545" grid="1" gridSize="10" guides="1" tooltips="1" connect="1" arrows="1" fold="1" page="1" pageScale="1" pageWidth="827" pageHeight="1169" math="0" shadow="0">
      <root>
        <mxCell id="0" />
        <mxCell id="1" parent="0" />
        <mxCell id="oAPKKPAD1SMjHprRpOpO-14" style="edgeStyle=orthogonalEdgeStyle;rounded=0;orthogonalLoop=1;jettySize=auto;html=1;" edge="1" parent="1" source="oAPKKPAD1SMjHprRpOpO-1" target="oAPKKPAD1SMjHprRpOpO-13">
          <mxGeometry relative="1" as="geometry" />
        </mxCell>
        <mxCell id="oAPKKPAD1SMjHprRpOpO-1" value="&lt;font style=&quot;font-size: 15px;&quot; face=&quot;Times New Roman&quot;&gt;Compressor 1&lt;/font&gt;" style="html=1;strokeWidth=2;outlineConnect=0;dashed=0;align=center;fontSize=8;fillColor=#c0f5a9;verticalLabelPosition=bottom;verticalAlign=top;shape=mxgraph.eip.message_filter;" vertex="1" parent="1">
          <mxGeometry x="280" y="320" width="90" height="50" as="geometry" />
        </mxCell>
        <mxCell id="oAPKKPAD1SMjHprRpOpO-18" style="edgeStyle=orthogonalEdgeStyle;rounded=0;orthogonalLoop=1;jettySize=auto;html=1;entryX=0;entryY=0.5;entryDx=0;entryDy=0;" edge="1" parent="1" source="oAPKKPAD1SMjHprRpOpO-2" target="oAPKKPAD1SMjHprRpOpO-17">
          <mxGeometry relative="1" as="geometry" />
        </mxCell>
        <mxCell id="oAPKKPAD1SMjHprRpOpO-2" value="&lt;font style=&quot;font-size: 15px;&quot; face=&quot;Times New Roman&quot;&gt;Compressor 2&lt;/font&gt;" style="html=1;strokeWidth=2;outlineConnect=0;dashed=0;align=center;fontSize=8;fillColor=#c0f5a9;verticalLabelPosition=bottom;verticalAlign=top;shape=mxgraph.eip.message_filter;" vertex="1" parent="1">
          <mxGeometry x="480" y="320" width="90" height="50" as="geometry" />
        </mxCell>
        <mxCell id="oAPKKPAD1SMjHprRpOpO-21" style="edgeStyle=orthogonalEdgeStyle;rounded=0;orthogonalLoop=1;jettySize=auto;html=1;entryX=1;entryY=0.5;entryDx=0;entryDy=0;" edge="1" parent="1" source="oAPKKPAD1SMjHprRpOpO-4" target="oAPKKPAD1SMjHprRpOpO-20">
          <mxGeometry relative="1" as="geometry" />
        </mxCell>
        <mxCell id="oAPKKPAD1SMjHprRpOpO-4" value="&lt;font style=&quot;font-size: 15px;&quot; face=&quot;Times New Roman&quot;&gt;Compressor 3&lt;/font&gt;" style="html=1;strokeWidth=2;outlineConnect=0;dashed=0;align=center;fontSize=8;fillColor=#c0f5a9;verticalLabelPosition=bottom;verticalAlign=top;shape=mxgraph.eip.message_filter;" vertex="1" parent="1">
          <mxGeometry x="580" y="430" width="90" height="50" as="geometry" />
        </mxCell>
        <mxCell id="oAPKKPAD1SMjHprRpOpO-6" value="" style="edgeStyle=orthogonalEdgeStyle;rounded=0;exitX=0;exitY=0.5;endArrow=none;dashed=0;html=1;strokeColor=#808080;strokeWidth=2;" edge="1" source="oAPKKPAD1SMjHprRpOpO-8" target="oAPKKPAD1SMjHprRpOpO-7" parent="1">
          <mxGeometry relative="1" as="geometry" />
        </mxCell>
        <mxCell id="oAPKKPAD1SMjHprRpOpO-7" value="" style="strokeWidth=2;dashed=0;align=center;fontSize=8;shape=ellipse;fillColor=#808080;strokeColor=none;" vertex="1" parent="1">
          <mxGeometry x="160" y="308" width="12" height="12" as="geometry" />
        </mxCell>
        <mxCell id="oAPKKPAD1SMjHprRpOpO-9" style="edgeStyle=orthogonalEdgeStyle;rounded=0;orthogonalLoop=1;jettySize=auto;html=1;" edge="1" parent="1" source="oAPKKPAD1SMjHprRpOpO-8" target="oAPKKPAD1SMjHprRpOpO-1">
          <mxGeometry relative="1" as="geometry" />
        </mxCell>
        <mxCell id="oAPKKPAD1SMjHprRpOpO-8" value="&lt;font style=&quot;font-size: 12px;&quot; face=&quot;Times New Roman&quot;&gt;Original Text&lt;/font&gt;" style="strokeWidth=2;dashed=0;align=center;fontSize=8;shape=rect;fillColor=#007FFF;fontStyle=1;whiteSpace=wrap;html=1;" vertex="1" parent="1">
          <mxGeometry x="192" y="329.5" width="70" height="31" as="geometry" />
        </mxCell>
        <mxCell id="oAPKKPAD1SMjHprRpOpO-24" style="edgeStyle=orthogonalEdgeStyle;rounded=0;orthogonalLoop=1;jettySize=auto;html=1;" edge="1" parent="1" source="oAPKKPAD1SMjHprRpOpO-11" target="oAPKKPAD1SMjHprRpOpO-23">
          <mxGeometry relative="1" as="geometry" />
        </mxCell>
        <mxCell id="oAPKKPAD1SMjHprRpOpO-11" value="&lt;font style=&quot;font-size: 15px;&quot; face=&quot;Times New Roman&quot;&gt;Compressor &lt;i&gt;n&lt;/i&gt;&lt;/font&gt;" style="html=1;strokeWidth=2;outlineConnect=0;dashed=0;align=center;fontSize=8;fillColor=#c0f5a9;verticalLabelPosition=bottom;verticalAlign=top;shape=mxgraph.eip.message_filter;" vertex="1" parent="1">
          <mxGeometry x="380" y="430" width="90" height="50" as="geometry" />
        </mxCell>
        <mxCell id="oAPKKPAD1SMjHprRpOpO-13" value="&lt;font style=&quot;font-size: 12px;&quot; face=&quot;Times New Roman&quot;&gt;Compressed Text 1&lt;/font&gt;" style="strokeWidth=2;dashed=0;align=center;fontSize=8;shape=rect;fillColor=#3399FF;fontStyle=1;whiteSpace=wrap;html=1;" vertex="1" parent="1">
          <mxGeometry x="390" y="329.5" width="70" height="31" as="geometry" />
        </mxCell>
        <mxCell id="oAPKKPAD1SMjHprRpOpO-16" style="edgeStyle=orthogonalEdgeStyle;rounded=0;orthogonalLoop=1;jettySize=auto;html=1;entryX=0;entryY=0.5;entryDx=0;entryDy=0;entryPerimeter=0;" edge="1" parent="1" source="oAPKKPAD1SMjHprRpOpO-13" target="oAPKKPAD1SMjHprRpOpO-2">
          <mxGeometry relative="1" as="geometry" />
        </mxCell>
        <mxCell id="oAPKKPAD1SMjHprRpOpO-17" value="&lt;font style=&quot;font-size: 12px;&quot; face=&quot;Times New Roman&quot;&gt;Compressed Text 2&lt;/font&gt;" style="strokeWidth=2;dashed=0;align=center;fontSize=8;shape=rect;fillColor=#66B2FF;fontStyle=1;whiteSpace=wrap;html=1;" vertex="1" parent="1">
          <mxGeometry x="590" y="329.5" width="70" height="31" as="geometry" />
        </mxCell>
        <mxCell id="oAPKKPAD1SMjHprRpOpO-19" style="edgeStyle=orthogonalEdgeStyle;rounded=0;orthogonalLoop=1;jettySize=auto;html=1;entryX=0.5;entryY=0;entryDx=0;entryDy=0;entryPerimeter=0;" edge="1" parent="1" source="oAPKKPAD1SMjHprRpOpO-17" target="oAPKKPAD1SMjHprRpOpO-4">
          <mxGeometry relative="1" as="geometry" />
        </mxCell>
        <mxCell id="oAPKKPAD1SMjHprRpOpO-20" value="&lt;font style=&quot;font-size: 12px;&quot; face=&quot;Times New Roman&quot;&gt;Compressed Text 2&lt;/font&gt;" style="strokeWidth=2;dashed=0;align=center;fontSize=8;shape=rect;fillColor=#99CCFF;fontStyle=1;whiteSpace=wrap;html=1;" vertex="1" parent="1">
          <mxGeometry x="490" y="439.5" width="70" height="31" as="geometry" />
        </mxCell>
        <mxCell id="oAPKKPAD1SMjHprRpOpO-22" style="edgeStyle=orthogonalEdgeStyle;rounded=0;orthogonalLoop=1;jettySize=auto;html=1;" edge="1" parent="1" source="oAPKKPAD1SMjHprRpOpO-20">
          <mxGeometry relative="1" as="geometry">
            <mxPoint x="470" y="455" as="targetPoint" />
          </mxGeometry>
        </mxCell>
        <mxCell id="oAPKKPAD1SMjHprRpOpO-23" value="&lt;font style=&quot;font-size: 12px;&quot; face=&quot;Times New Roman&quot;&gt;Final Text&lt;/font&gt;" style="strokeWidth=2;dashed=0;align=center;fontSize=8;shape=rect;fillColor=#CCE5FF;fontStyle=1;whiteSpace=wrap;html=1;" vertex="1" parent="1">
          <mxGeometry x="290" y="439.5" width="70" height="31" as="geometry" />
        </mxCell>
      </root>
    </mxGraphModel>
  </diagram>
</mxfile>
